# xmcd
#
# Track frame offsets: 
#        150
#        16668
#        35535
#        54625
#
# Disc length: 965 seconds
#
# Revision: 1
# Processed by: cddbd v1.5.2PL0 Copyright (c) Steve Scherf et al.
# Submitted via: ExactAudioCopy v1.3
#
DISCID=2703c304
DTITLE=Arrested Development - Ease My Mind
DYEAR=1994
DGENRE=Hip-Hop
TTITLE0=Ease My Mind (Radio Version)
TTITLE1=Ease My Mind (Album Version)
TTITLE2=Ease My Mind (Another Perspective Mix)
TTITLE3=Ease My Mind (Beat Version)
EXTD=
EXTT0=
EXTT1=
EXTT2=
EXTT3=
PLAYORDER=
